<?xml version="1.0" encoding="UTF-8"?>
<svg width="100" height="20" version="1.0" xmlns="http://www.w3.org/2000/svg" xmlns:cc="http://creativecommons.org/ns#" xmlns:dc="http://purl.org/dc/elements/1.1/" xmlns:rdf="http://www.w3.org/1999/02/22-rdf-syntax-ns#">
 <metadata>
  <rdf:RDF>
   <cc:Work rdf:about="">
    <dc:format>image/svg+xml</dc:format>
    <dc:type rdf:resource="http://purl.org/dc/dcmitype/StillImage"/>
    <dc:title/>
   </cc:Work>
  </rdf:RDF>
 </metadata>
 <defs>
  <style id="current-color-scheme" type="text/css">.ColorScheme-Text {
        color:#000000;
      }
      .ColorScheme-Background{
        color:#7f7f7f;
      }
      .ColorScheme-ViewText {
        color:#000000;
      }
      .ColorScheme-ViewBackground{
        color:#ffffff;
      }
      .ColorScheme-ViewHover {
        color:#7f7f7f;
      }
      .ColorScheme-ViewFocus{
        color:#5a5a5a;
      }
      .ColorScheme-ButtonText {
        color:#000000;
      }
      .ColorScheme-ButtonBackground{
        color:#E9E8E8;
      }
      .ColorScheme-ButtonHover {
        color:#1489ff;
      }
      .ColorScheme-ButtonFocus{
        color:#2B74C7;
      }</style>
 </defs>
 <g id="hover-center" transform="matrix(1.3 0 0 1.3 45.734 17.657)">
  <rect x="-15.18" y="-18.198" width="20" height="20" opacity="0"/>
  <path class="ColorScheme-ViewHover" transform="matrix(1.1538 0 0 1.1538 -50.205 -15.216)" d="m45 6a6 6 0 1 1-12 0 6 6 0 1 1 12 0z" fill="currentColor"/>
  <g transform="matrix(.85577 0 0 .85577 -1.0062 -1.2642)">
   <path d="m-4.0501-14.97 3.9767 2.8091-4.3237 5.8128-3.7979-2.2927z" fill="#fff" stroke-width="6.9364"/>
   <path d="m-9.7643-9.9959 6.8831 4.9443" fill="#ff2a2a" stroke="#fff" stroke-width=".65678px"/>
   <path d="m-6.3932-7.4401-3.1573 4.3988" fill="none" stroke="#fff" stroke-width=".65382px"/>
  </g>
 </g>
 <g id="pressed-center" transform="matrix(1.3 0 0 1.3 71.734 17.657)">
  <rect x="-15.18" y="-18.198" width="20" height="20" opacity="0"/>
  <path class="ColorScheme-ViewHover" transform="matrix(1.1538 0 0 1.1538 -50.205 -15.216)" d="m45 6a6 6 0 1 1-12 0 6 6 0 1 1 12 0z" fill="currentColor" fill-opacity=".75"/>
  <circle transform="matrix(1.3128 0 0 1.3128 -207.87 -563.86)" cx="154.39" cy="423.26" r=".87891" fill="#606060"/>
 </g>
 <g id="active-center" transform="matrix(1.3 0 0 1.3 19.734 17.657)">
  <rect x="-15.18" y="-18.198" width="20" height="20" opacity="0"/>
  <g transform="translate(-.042494 .76252)" fill="#fff">
   <path d="m-4.0501-14.97 3.9767 2.8091-4.3237 5.8128-3.7979-2.2927z" stroke-width="6.9364"/>
   <path d="m-9.7643-9.9959 6.8831 4.9443" stroke="#fff" stroke-width=".65678px"/>
   <path d="m-6.3932-7.4401-3.1573 4.3988" stroke="#fff" stroke-width=".65382px"/>
  </g>
 </g>
 <g id="inactive-center" transform="matrix(1.3 0 0 1.3 100.96 17.657)">
  <rect x="-15.18" y="-18.198" width="20" height="20" opacity="0"/>
  <g transform="matrix(.85577 0 0 .85577 -2.6232 -1.3966)">
   <path d="m-4.0501-14.97 3.9767 2.8091-4.3237 5.8128-3.7979-2.2927z" fill="#bdc3c7" stroke-width="6.9364"/>
   <path d="m-9.7643-9.9959 6.8831 4.9443" fill="none" stroke="#bdc3c7" stroke-width=".65678px"/>
   <path d="m-6.3932-7.4401-3.1573 4.3988" fill="none" stroke="#bdc3c7" stroke-width=".65382px"/>
  </g>
 </g>
 <g id="hover-inactive-center" transform="matrix(1.3 0 0 1.3 123.73 17.657)">
  <rect x="-15.18" y="-18.198" width="20" height="20" opacity="0"/>
  <path class="ColorScheme-ViewHover" transform="matrix(1.1538 0 0 1.1538 -50.205 -15.216)" d="m45 6a6 6 0 1 1-12 0 6 6 0 1 1 12 0z" fill="currentColor"/>
  <g transform="matrix(.85577 0 0 .85577 -1.0829 -1.0889)">
   <path d="m-4.0501-14.97 3.9767 2.8091-4.3237 5.8128-3.7979-2.2927z" fill="#fff" stroke-width="6.9364"/>
   <path d="m-9.7643-9.9959 6.8831 4.9443" fill="#ff2a2a" stroke="#fff" stroke-width=".65678px"/>
   <path d="m-6.3932-7.4401-3.1573 4.3988" fill="none" stroke="#fff" stroke-width=".65382px"/>
  </g>
 </g>
 <g id="pressed-inactive-center" transform="matrix(1.3 0 0 1.3 149.73 17.657)">
  <rect x="-15.18" y="-18.198" width="20" height="20" opacity="0"/>
  <path class="ColorScheme-ViewHover" transform="matrix(1.1538 0 0 1.1538 -50.205 -15.216)" d="m45 6a6 6 0 1 1-12 0 6 6 0 1 1 12 0z" fill="currentColor" fill-opacity=".75"/>
  <circle transform="matrix(1.3128 0 0 1.3128 -207.87 -563.86)" cx="154.39" cy="423.26" r=".87891" fill="#bdc3c7"/>
 </g>
</svg>
