<?xml version="1.0" encoding="UTF-8"?>
<svg width="100" height="20" version="1.0" xmlns="http://www.w3.org/2000/svg" xmlns:cc="http://creativecommons.org/ns#" xmlns:dc="http://purl.org/dc/elements/1.1/" xmlns:rdf="http://www.w3.org/1999/02/22-rdf-syntax-ns#">
 <metadata>
  <rdf:RDF>
   <cc:Work rdf:about="">
    <dc:format>image/svg+xml</dc:format>
    <dc:type rdf:resource="http://purl.org/dc/dcmitype/StillImage"/>
    <dc:title/>
   </cc:Work>
  </rdf:RDF>
 </metadata>
 <g id="active-center" transform="matrix(1.3 0 0 1.3 19.653 17.376)" stroke="#fff">
  <rect x="-15.118" y="-17.982" width="20" height="20" opacity="0"/>
  <g transform="translate(-1808 -341.87)" stroke="#fff"></g>
  <g transform="matrix(.69462 0 0 .69152 258.52 -206.74)" fill="none" stroke="#fff" stroke-linecap="round">
   <path d="m-385.34 281.65 11.606 11.606" stroke-width="1.9778"/>
   <path d="m-373.74 281.6-11.6 11.654" stroke-width="1.9813"/>
  </g>
 </g>
 <g id="pressed-center" transform="matrix(1.3 0 0 1.3 71.653 17.376)">
  <rect x="-15.118" y="-17.982" width="20" height="20" opacity="0"/>
  <g transform="translate(-1808 -341.87)"></g>
  <path transform="matrix(.74499 0 0 .74499 -14.62 -13.243)" d="m22.293 7a9.2929 9.2929 0 1 1-18.586 0 9.2929 9.2929 0 1 1 18.586 0z" fill="#db4439" fill-opacity=".74902"/>
  <g transform="matrix(.61435 0 0 .6116 228.23 -183.81)" fill="none" stroke="#606060" stroke-linecap="round">
   <path d="m-385.34 281.65 11.606 11.606" stroke-width="2.2362"/>
   <path d="m-373.74 281.6-11.6 11.654" stroke-width="2.24"/>
  </g>
 </g>
 <g id="inactive-center" transform="matrix(1.3 0 0 1.3 97.653 17.376)">
  <rect x="-15.118" y="-17.982" width="20" height="20" opacity="0" stroke-width=".65611"/>
  <g transform="translate(-1808 -341.87)" stroke-width=".65611"></g>
  <g transform="matrix(.68563 0 0 .68253 255.11 -204.16)" fill="none" stroke="#bdc3c7" stroke-linecap="round" stroke-width="2.0038">
   <path d="m-385.34 281.65 11.606 11.606"/>
   <path d="m-373.74 281.6-11.6 11.654"/>
  </g>
 </g>
 <g id="pressed-inactive-center" transform="matrix(1.3 0 0 1.3 149.65 17.376)">
  <rect x="-15.118" y="-17.982" width="20" height="20" opacity="0"/>
  <g transform="translate(-1808 -341.87)"></g>
  <path transform="matrix(.74499 0 0 .74499 -14.62 -13.243)" d="m22.293 7a9.2929 9.2929 0 1 1-18.586 0 9.2929 9.2929 0 1 1 18.586 0z" fill="#db4439" fill-opacity=".74902"/>
  <g transform="matrix(.65842 0 0 .65547 244.96 -196.43)" fill="none" stroke="#606060" stroke-linecap="round">
   <path d="m-385.34 281.65 11.606 11.606" stroke-width="2.0865"/>
   <path d="m-373.74 281.6-11.6 11.654" stroke-width="2.0903"/>
  </g>
 </g>
 <g id="hover-center" transform="matrix(1.3 0 0 1.3 45.653 17.376)">
  <rect x="-15.118" y="-17.982" width="20" height="20" opacity="0"/>
  <g transform="translate(-1808 -341.87)"></g>
  <path transform="matrix(.74499 0 0 .74499 -14.62 -13.243)" d="m22.293 7a9.2929 9.2929 0 1 1-18.586 0 9.2929 9.2929 0 1 1 18.586 0z" fill="#db4439"/>
  <g transform="matrix(.61435 0 0 .6116 228.23 -183.81)" fill="none" stroke="#fff" stroke-linecap="round">
   <path d="m-385.34 281.65 11.606 11.606" stroke-width="2.2362"/>
   <path d="m-373.74 281.6-11.6 11.654" stroke-width="2.24"/>
  </g>
 </g>
 <g id="hover-inactive-center" transform="matrix(1.3 0 0 1.3 123.65 17.376)">
  <rect x="-15.118" y="-17.982" width="20" height="20" opacity="0"/>
  <g transform="translate(-1808 -341.87)"></g>
  <path transform="matrix(.74499 0 0 .74499 -14.62 -13.243)" d="m22.293 7a9.2929 9.2929 0 1 1-18.586 0 9.2929 9.2929 0 1 1 18.586 0z" fill="#db4439"/>
  <g transform="matrix(.60784 0 0 .60511 225.76 -181.95)" fill="none" stroke="#eff0f1" stroke-linecap="round">
   <path d="m-385.34 281.65 11.606 11.606" stroke-width="2.2602"/>
   <path d="m-373.74 281.6-11.6 11.654" stroke-width="2.2643"/>
  </g>
 </g>
</svg>
