<?xml version="1.0" encoding="UTF-8"?>
<svg width="100" height="20" version="1.0" xmlns="http://www.w3.org/2000/svg" xmlns:cc="http://creativecommons.org/ns#" xmlns:dc="http://purl.org/dc/elements/1.1/" xmlns:rdf="http://www.w3.org/1999/02/22-rdf-syntax-ns#">
 <metadata>
  <rdf:RDF>
   <cc:Work rdf:about="">
    <dc:format>image/svg+xml</dc:format>
    <dc:type rdf:resource="http://purl.org/dc/dcmitype/StillImage"/>
    <dc:title/>
   </cc:Work>
  </rdf:RDF>
 </metadata>
 <defs>
  <style id="current-color-scheme" type="text/css">.ColorScheme-Text {
        color:#000000;
      }
      .ColorScheme-Background{
        color:#7f7f7f;
      }
      .ColorScheme-ViewText {
        color:#000000;
      }
      .ColorScheme-ViewBackground{
        color:#ffffff;
      }
      .ColorScheme-ViewHover {
        color:#7f7f7f;
      }
      .ColorScheme-ViewFocus{
        color:#5a5a5a;
      }
      .ColorScheme-ButtonText {
        color:#000000;
      }
      .ColorScheme-ButtonBackground{
        color:#E9E8E8;
      }
      .ColorScheme-ButtonHover {
        color:#1489ff;
      }
      .ColorScheme-ButtonFocus{
        color:#2B74C7;
      }</style>
 </defs>
 <g id="hover-center" transform="matrix(1.3 0 0 1.3 45.734 17.657)">
  <rect x="-15.18" y="-18.198" width="20" height="20" opacity="0"/>
  <path class="ColorScheme-ViewHover" transform="matrix(1.1538 0 0 1.1538 -50.205 -15.216)" d="m45 6a6 6 0 1 1-12 0 6 6 0 1 1 12 0z" fill="currentColor"/>
  <path d="m-7.1354-10.704c0.11419-1.1231 1.5953-1.686 2.7067-1.1938 0.56349 0.24956 1.328 0.99339 1.1879 2.2895-0.11578 1.0706-1.9666 2.2786-1.9805 3.7505" fill="none" stroke="#fff" stroke-width="1.7308"/>
  <path transform="matrix(1.3128 0 0 1.3128 -207.87 -560.02)" d="m155.27 423.26a0.87891 0.87891 0 0 1-0.87891 0.87891 0.87891 0.87891 0 0 1-0.87891-0.87891 0.87891 0.87891 0 0 1 0.87891-0.87891 0.87891 0.87891 0 0 1 0.87891 0.87891z" fill="#fff"/>
 </g>
 <g id="pressed-center" transform="matrix(1.3 0 0 1.3 71.734 17.657)">
  <rect x="-15.18" y="-18.198" width="20" height="20" opacity="0"/>
  <path class="ColorScheme-ViewHover" transform="matrix(1.1538 0 0 1.1538 -50.205 -15.216)" d="m45 6a6 6 0 1 1-12 0 6 6 0 1 1 12 0z" fill="currentColor" fill-opacity=".75"/>
  <path d="m-7.1354-10.704c0.11419-1.1231 1.5953-1.686 2.7067-1.1938 0.56349 0.24956 1.328 0.99339 1.1879 2.2895-0.11578 1.0706-1.9666 2.2786-1.9805 3.7505" fill="none" stroke="#606060" stroke-width="1.7308"/>
  <path transform="matrix(1.3128 0 0 1.3128 -207.87 -560.02)" d="m155.27 423.26a0.87891 0.87891 0 0 1-0.87891 0.87891 0.87891 0.87891 0 0 1-0.87891-0.87891 0.87891 0.87891 0 0 1 0.87891-0.87891 0.87891 0.87891 0 0 1 0.87891 0.87891z" fill="#606060"/>
 </g>
 <g id="active-center" transform="matrix(1.3 0 0 1.3 19.734 17.657)">
  <rect x="-15.18" y="-18.198" width="20" height="20" opacity="0"/>
  <path d="m-7.1354-10.704c0.11419-1.1231 1.5953-1.686 2.7067-1.1938 0.56349 0.24956 1.328 0.99339 1.1879 2.2895-0.11578 1.0706-1.9666 2.2786-1.9805 3.7505" fill="none" stroke="#fff" stroke-width="1.7308"/>
  <circle transform="matrix(1.3128 0 0 1.3128 -207.87 -560.02)" cx="154.39" cy="423.26" r=".87891" fill="#fff"/>
 </g>
 <g id="inactive-center" transform="matrix(1.3 0 0 1.3 97.734 17.657)">
  <rect x="-15.18" y="-18.198" width="20" height="20" opacity="0"/>
  <path d="m-7.141-10.707c0.11227-1.1251 1.5685-1.689 2.6612-1.1959 0.55401 0.25001 1.3057 0.99517 1.1679 2.2936-0.11384 1.0726-1.9335 2.2827-1.9472 3.7572" fill="none" stroke="#bdc3c7" stroke-width="1.7308"/>
  <circle transform="matrix(1.3128 0 0 1.3128 -207.87 -560.02)" cx="154.39" cy="423.26" r=".87891" fill="#bdc3c7"/>
 </g>
 <g id="hover-inactive-center" transform="matrix(1.3 0 0 1.3 123.73 17.657)">
  <rect x="-15.18" y="-18.198" width="20" height="20" opacity="0"/>
  <path class="ColorScheme-ViewHover" transform="matrix(1.1538 0 0 1.1538 -50.205 -15.216)" d="m45 6a6 6 0 1 1-12 0 6 6 0 1 1 12 0z" fill="currentColor"/>
  <path d="m-7.1354-10.704c0.11419-1.1231 1.5953-1.686 2.7067-1.1938 0.56349 0.24956 1.328 0.99339 1.1879 2.2895-0.11578 1.0706-1.9666 2.2786-1.9805 3.7505" fill="none" stroke="#fff" stroke-width="1.7308"/>
  <path transform="matrix(1.3128 0 0 1.3128 -207.87 -560.02)" d="m155.27 423.26a0.87891 0.87891 0 0 1-0.87891 0.87891 0.87891 0.87891 0 0 1-0.87891-0.87891 0.87891 0.87891 0 0 1 0.87891-0.87891 0.87891 0.87891 0 0 1 0.87891 0.87891z" fill="#fff"/>
 </g>
 <g id="pressed-inactive-center" transform="matrix(1.3 0 0 1.3 149.73 17.657)">
  <rect x="-15.18" y="-18.198" width="20" height="20" opacity="0"/>
  <path class="ColorScheme-ViewHover" transform="matrix(1.1538 0 0 1.1538 -50.205 -15.216)" d="m45 6a6 6 0 1 1-12 0 6 6 0 1 1 12 0z" fill="currentColor" fill-opacity=".75"/>
  <path d="m-7.1354-10.704c0.11419-1.1231 1.5953-1.686 2.7067-1.1938 0.56349 0.24956 1.328 0.9934 1.1879 2.2895-0.11578 1.0706-1.9666 2.2786-1.9805 3.7505" fill="none" stroke="#606060" stroke-width="1.7308"/>
  <path transform="matrix(1.3128 0 0 1.3128 -207.87 -560.02)" d="m155.27 423.26a0.87891 0.87891 0 0 1-0.87891 0.87891 0.87891 0.87891 0 0 1-0.87891-0.87891 0.87891 0.87891 0 0 1 0.87891-0.87891 0.87891 0.87891 0 0 1 0.87891 0.87891z" fill="#606060"/>
 </g>
</svg>
