<?xml version="1.0" encoding="UTF-8"?>
<svg width="100" height="20" version="1.0" xmlns="http://www.w3.org/2000/svg" xmlns:cc="http://creativecommons.org/ns#" xmlns:dc="http://purl.org/dc/elements/1.1/" xmlns:rdf="http://www.w3.org/1999/02/22-rdf-syntax-ns#">
 <metadata>
  <rdf:RDF>
   <cc:Work rdf:about="">
    <dc:format>image/svg+xml</dc:format>
    <dc:type rdf:resource="http://purl.org/dc/dcmitype/StillImage"/>
    <dc:title/>
   </cc:Work>
  </rdf:RDF>
 </metadata>
 <defs>
  <style id="current-color-scheme" type="text/css">.ColorScheme-Text {
        color:#000000;
      }
      .ColorScheme-Background{
        color:#7f7f7f;
      }
      .ColorScheme-ViewText {
        color:#000000;
      }
      .ColorScheme-ViewBackground{
        color:#ffffff;
      }
      .ColorScheme-ViewHover {
        color:#7f7f7f;
      }
      .ColorScheme-ViewFocus{
        color:#5a5a5a;
      }
      .ColorScheme-ButtonText {
        color:#000000;
      }
      .ColorScheme-ButtonBackground{
        color:#E9E8E8;
      }
      .ColorScheme-ButtonHover {
        color:#1489ff;
      }
      .ColorScheme-ButtonFocus{
        color:#2B74C7;
      }</style>
 </defs>
 <g id="hover-center" transform="matrix(1.3 0 0 1.3 45.734 17.657)">
  <rect x="-15.18" y="-18.198" width="20" height="20" opacity="0"/>
  <path class="ColorScheme-ViewHover" transform="matrix(1.1538 0 0 1.1538 -50.282 -15.216)" d="m45 6a6 6 0 1 1-12 0 6 6 0 1 1 12 0z" fill="currentColor"/>
  <g transform="rotate(180 -5.0503 -8.3347)" fill="none" stroke="#fff" stroke-width=".84615">
   <g>
    <g>
     <path d="m-9.5599-12.253h8.5446"/>
     <path d="m-9.5416-8.6981h4.222"/>
     <path d="m-9.5782-5.3716h4.2951"/>
    </g>
    <path d="m-1.3534-3.2332v-7.6399" stroke-linejoin="round"/>
   </g>
   <path d="m-3.3548-8.6798 2.0013-2.0927" stroke-linecap="round" stroke-linejoin="round"/>
   <path d="m-1.3534-10.773 2.0013 2.0927" stroke-linecap="round" stroke-linejoin="round"/>
  </g>
 </g>
 <g id="active-center" transform="matrix(1.3 0 0 1.3 19.734 17.657)" stroke="#fff">
  <rect x="-15.18" y="-18.198" width="20" height="20" opacity="0"/>
  <g transform="rotate(180 -5.0503 -8.296)" fill="none" stroke="#fff" stroke-width=".84615">
   <g>
    <g>
     <path d="m-9.5599-12.253h8.5446"/>
     <path d="m-9.5416-8.6981h4.222"/>
     <path d="m-9.5782-5.3716h4.2951"/>
    </g>
    <path d="m-1.3534-3.2332v-7.6399" stroke-linejoin="round"/>
   </g>
   <path d="m-3.3548-8.6798 2.0013-2.0927" stroke-linecap="round" stroke-linejoin="round"/>
   <path d="m-1.3534-10.773 2.0013 2.0927" stroke-linecap="round" stroke-linejoin="round"/>
  </g>
 </g>
 <g id="inactive-center" transform="matrix(1.3 0 0 1.3 97.734 17.657)">
  <rect x="-15.18" y="-18.198" width="20" height="20" opacity="0"/>
  <g transform="rotate(180 -5.0062 -8.296)" fill="none" stroke="#bdc3c7" stroke-width=".84615">
   <g>
    <g>
     <path d="m-9.5599-12.253h8.5446"/>
     <path d="m-9.5416-8.6981h4.222"/>
     <path d="m-9.5782-5.3716h4.2951"/>
    </g>
    <path d="m-1.3534-3.2332v-7.6399" stroke-linejoin="round"/>
   </g>
   <path d="m-3.3548-8.6798 2.0013-2.0927" stroke-linecap="round" stroke-linejoin="round"/>
   <path d="m-1.3534-10.773 2.0013 2.0927" stroke-linecap="round" stroke-linejoin="round"/>
  </g>
 </g>
 <g id="pressed-center" transform="matrix(1.3 0 0 1.3 71.734 17.657)">
  <rect x="-15.18" y="-18.198" width="20" height="20" opacity="0"/>
  <path class="ColorScheme-ViewHover" transform="matrix(1.1538 0 0 1.1538 -50.282 -15.216)" d="m45 6a6 6 0 1 1-12 0 6 6 0 1 1 12 0z" fill="currentColor" fill-opacity=".75"/>
  <g transform="rotate(180 -5.0778 -8.296)" fill="none" stroke="#606060" stroke-width=".84615">
   <g>
    <g>
     <path d="m-9.5599-12.253h8.5446"/>
     <path d="m-9.5416-8.6981h4.222"/>
     <path d="m-9.5782-5.3716h4.2951"/>
    </g>
    <path d="m-1.3534-3.2332v-7.6399" stroke-linejoin="round"/>
   </g>
   <path d="m-3.3548-8.6798 2.0013-2.0927" stroke-linecap="round" stroke-linejoin="round"/>
   <path d="m-1.3534-10.773 2.0013 2.0927" stroke-linecap="round" stroke-linejoin="round"/>
  </g>
 </g>
 <g id="hover-inactive-center" transform="matrix(1.3 0 0 1.3 123.73 17.657)">
  <rect x="-15.18" y="-18.198" width="20" height="20" opacity="0"/>
  <path class="ColorScheme-ViewHover" transform="matrix(1.1538 0 0 1.1538 -50.282 -15.216)" d="m45 6a6 6 0 1 1-12 0 6 6 0 1 1 12 0z" fill="currentColor"/>
  <g transform="rotate(180 -5.0652 -8.296)" fill="none" stroke="#fff" stroke-width=".84615">
   <g>
    <g>
     <path d="m-9.5599-12.253h8.5446"/>
     <path d="m-9.5416-8.6981h4.222"/>
     <path d="m-9.5782-5.3716h4.2951"/>
    </g>
    <path d="m-1.3534-3.2332v-7.6399" stroke-linejoin="round"/>
   </g>
   <path d="m-3.3548-8.6798 2.0013-2.0927" stroke-linecap="round" stroke-linejoin="round"/>
   <path d="m-1.3534-10.773 2.0013 2.0927" stroke-linecap="round" stroke-linejoin="round"/>
  </g>
 </g>
 <g id="pressed-inactive-center" transform="matrix(1.3 0 0 1.3 149.73 17.657)">
  <rect x="-15.18" y="-18.198" width="20" height="20" opacity="0"/>
  <path class="ColorScheme-ViewHover" transform="matrix(1.1538 0 0 1.1538 -50.282 -15.216)" d="m45 6a6 6 0 1 1-12 0 6 6 0 1 1 12 0z" fill="currentColor" fill-opacity=".75"/>
  <g transform="rotate(180 -5.1392 -8.296)" fill="none" stroke="#606060" stroke-width=".84615">
   <g>
    <g>
     <path d="m-9.5599-12.253h8.5446"/>
     <path d="m-9.5416-8.6981h4.222"/>
     <path d="m-9.5782-5.3716h4.2951"/>
    </g>
    <path d="m-1.3534-3.2332v-7.6399" stroke-linejoin="round"/>
   </g>
   <path d="m-3.3548-8.6798 2.0013-2.0927" stroke-linecap="round" stroke-linejoin="round"/>
   <path d="m-1.3534-10.773 2.0013 2.0927" stroke-linecap="round" stroke-linejoin="round"/>
  </g>
 </g>
</svg>
