<?xml version="1.0" encoding="UTF-8"?>
<svg width="100" height="20" version="1.0" xmlns="http://www.w3.org/2000/svg" xmlns:cc="http://creativecommons.org/ns#" xmlns:dc="http://purl.org/dc/elements/1.1/" xmlns:rdf="http://www.w3.org/1999/02/22-rdf-syntax-ns#">
 <metadata>
  <rdf:RDF>
   <cc:Work rdf:about="">
    <dc:format>image/svg+xml</dc:format>
    <dc:type rdf:resource="http://purl.org/dc/dcmitype/StillImage"/>
    <dc:title/>
   </cc:Work>
  </rdf:RDF>
 </metadata>
 <defs>
  <style id="current-color-scheme" type="text/css">.ColorScheme-Text {
        color:#000000;
      }
      .ColorScheme-Background{
        color:#7f7f7f;
      }
      .ColorScheme-ViewText {
        color:#000000;
      }
      .ColorScheme-ViewBackground{
        color:#ffffff;
      }
      .ColorScheme-ViewHover {
        color:#93cee9;
      }
      .ColorScheme-ViewFocus{
        color:#3daee9;
      }
      .ColorScheme-ButtonText {
        color:#000000;
      }
      .ColorScheme-ButtonBackground{
        color:#E9E8E8;
      }
      .ColorScheme-ButtonHover {
        color:#1489ff;
      }
      .ColorScheme-ButtonFocus{
        color:#2B74C7;
      }</style>
 </defs>
 <g id="active-center" stroke="#fff">
  <rect x="-3.9673e-7" y="-6.0004" width="26" height="26" opacity="0" stroke-width="1.3"/>
  <g fill="none" stroke-width="1.1">
   <path d="m7.3058 1.7201h11.108"/>
   <path d="m7.3296 6.3415h5.4886"/>
   <path d="m7.282 10.666h5.5836"/>
   <g stroke-linejoin="round">
    <path d="m17.975 13.446v-9.9319"/>
    <path d="m15.373 6.3653 2.6017-2.7205" stroke-linecap="round"/>
    <path d="m17.975 3.6441 2.6017 2.7205" stroke-linecap="round"/>
   </g>
  </g>
 </g>
 <g id="hover-center">
  <rect x="26" y="-6.0004" width="26" height="26" opacity="0" stroke-width="1.3"/>
  <path class="ColorScheme-ViewHover" d="m48 6.9996a8.9996 8.9996 0 1 1-17.999 0 8.9996 8.9996 0 1 1 17.999 0z" fill="currentColor" stroke-width="1.4999"/>
  <g fill="none" stroke="#fff" stroke-width="1.1">
   <path d="m33.306 1.8041h11.108"/>
   <path d="m33.33 6.4255h5.4886"/>
   <path d="m33.282 10.75h5.5836"/>
   <g stroke-linejoin="round">
    <path d="m43.975 13.53v-9.9319"/>
    <path d="m41.373 6.4493 2.6017-2.7205" stroke-linecap="round"/>
    <path d="m43.975 3.7281 2.6017 2.7205" stroke-linecap="round"/>
   </g>
  </g>
 </g>
 <g id="inactive-center">
  <rect x="78" y="-6.0004" width="26" height="26" opacity="0" stroke-width="1.3"/>
  <g fill="none" stroke="#bdc3c7" stroke-width="1.1">
   <path d="m85.306 1.7201h11.108"/>
   <path d="m85.33 6.3415h5.4886"/>
   <path d="m85.282 10.666h5.5836"/>
   <g stroke-linejoin="round">
    <path d="m95.975 13.446v-9.9319"/>
    <path d="m93.373 6.3653 2.6017-2.7205" stroke-linecap="round"/>
    <path d="m95.975 3.6441 2.6017 2.7205" stroke-linecap="round"/>
   </g>
  </g>
 </g>
 <g id="pressed-center">
  <rect x="52" y="-6.0004" width="26" height="26" opacity="0" stroke-width="1.1"/>
  <path class="ColorScheme-ViewHover" d="m74 6.9996a8.9996 8.9996 0 1 1-17.999 0 8.9996 8.9996 0 1 1 17.999 0z" fill="currentColor" fill-opacity=".75" stroke-width="1.4999"/>
  <g fill="none" stroke="#606060" stroke-width="1.1">
   <path d="m59.306 1.7281h11.108"/>
   <path d="m59.33 6.3495h5.4886"/>
   <path d="m59.282 10.674h5.5836"/>
   <g stroke-linejoin="round">
    <path d="m69.975 13.454v-9.9319"/>
    <path d="m67.373 6.3733 2.6017-2.7205" stroke-linecap="round"/>
    <path d="m69.975 3.6521 2.6017 2.7205" stroke-linecap="round"/>
   </g>
  </g>
 </g>
 <g id="hover-inactive-center">
  <rect x="104" y="-6.0004" width="26" height="26" opacity="0" stroke-width="1.3"/>
  <path class="ColorScheme-ViewHover" d="m126 6.9996a8.9996 8.9996 0 1 1-17.999 0 8.9996 8.9996 0 1 1 17.999 0z" fill="currentColor" stroke-width="1.4999"/>
  <g fill="none" stroke="#fff" stroke-width="1.1">
   <path d="m111.33 1.7201h11.108"/>
   <path d="m111.36 6.3415h5.4886"/>
   <path d="m111.31 10.666h5.5836"/>
   <g stroke-linejoin="round">
    <path d="m122 13.446v-9.9319"/>
    <path d="m119.4 6.3653 2.6017-2.7205" stroke-linecap="round"/>
    <path d="m122 3.6441 2.6017 2.7205" stroke-linecap="round"/>
   </g>
  </g>
 </g>
 <g id="pressed-inactive-center">
  <rect x="130" y="-6.0004" width="26" height="26" opacity="0" stroke-width="1.3"/>
  <path class="ColorScheme-ViewHover" d="m152 6.9996a8.9996 8.9996 0 1 1-17.999 0 8.9996 8.9996 0 1 1 17.999 0z" fill="currentColor" fill-opacity=".75" stroke-width="1.4999"/>
  <g fill="none" stroke="#606060" stroke-width="1.1">
   <path d="m137.42 1.7201h11.108"/>
   <path d="m137.45 6.3415h5.4886"/>
   <path d="m137.4 10.666h5.5836"/>
   <g stroke-linejoin="round">
    <path d="m148.09 13.446v-9.9319"/>
    <path d="m145.49 6.3653 2.6017-2.7205" stroke-linecap="round"/>
    <path d="m148.09 3.6441 2.6017 2.7205" stroke-linecap="round"/>
   </g>
  </g>
 </g>
</svg>
