<?xml version="1.0" encoding="UTF-8"?>
<svg width="100" height="20" version="1.0" xmlns="http://www.w3.org/2000/svg" xmlns:cc="http://creativecommons.org/ns#" xmlns:dc="http://purl.org/dc/elements/1.1/" xmlns:rdf="http://www.w3.org/1999/02/22-rdf-syntax-ns#">
 <metadata>
  <rdf:RDF>
   <cc:Work rdf:about="">
    <dc:format>image/svg+xml</dc:format>
    <dc:type rdf:resource="http://purl.org/dc/dcmitype/StillImage"/>
    <dc:title/>
   </cc:Work>
  </rdf:RDF>
 </metadata>
 <defs>
  <style id="current-color-scheme" type="text/css">.ColorScheme-Text {
        color:#000000;
      }
      .ColorScheme-Background{
        color:#7f7f7f;
      }
      .ColorScheme-ViewText {
        color:#000000;
      }
      .ColorScheme-ViewBackground{
        color:#ffffff;
      }
      .ColorScheme-ViewHover {
        color:#7f7f7f;
      }
      .ColorScheme-ViewFocus{
        color:#5a5a5a;
      }
      .ColorScheme-ButtonText {
        color:#000000;
      }
      .ColorScheme-ButtonBackground{
        color:#E9E8E8;
      }
      .ColorScheme-ButtonHover {
        color:#1489ff;
      }
      .ColorScheme-ButtonFocus{
        color:#2B74C7;
      }</style>
 </defs>
 <g id="hover-center" transform="matrix(1.3 0 0 1.3 45.734 17.657)">
  <rect x="-15.18" y="-18.198" width="20" height="20" opacity="0"/>
  <path class="ColorScheme-ViewHover" transform="matrix(1.1538 0 0 1.1538 -50.205 -15.216)" d="m45 6a6 6 0 1 1-12 0 6 6 0 1 1 12 0z" fill="currentColor"/>
  <g transform="translate(-.11149 -.12255)" fill="none" stroke="#fff" stroke-linejoin="round" stroke-width="1.0769">
   <rect x="-9.2523" y="-10.537" width="6.8548" height="6.6935" rx=".28546" ry=".28546"/>
   <path d="m-7.3787-10.544v-1.9531h6.4438v6.4438h-1.3543"/>
  </g>
 </g>
 <g id="pressed-center" transform="matrix(1.3 0 0 1.3 71.734 17.657)">
  <rect x="-15.18" y="-18.198" width="20" height="20" opacity="0"/>
  <path class="ColorScheme-ViewHover" transform="matrix(1.1538 0 0 1.1538 -50.205 -15.216)" d="m45 6a6 6 0 1 1-12 0 6 6 0 1 1 12 0z" fill="currentColor" fill-opacity=".75"/>
  <g fill="none" stroke="#606060" stroke-linejoin="round" stroke-width="1.0769">
   <rect x="-9.2523" y="-10.537" width="6.8548" height="6.6935" rx=".28546" ry=".28546"/>
   <path d="m-7.3787-10.544v-1.9531h6.4438v6.4438h-1.3543"/>
  </g>
 </g>
 <g id="active-center" transform="matrix(1.3 0 0 1.3 19.734 17.657)">
  <rect x="-15.18" y="-18.198" width="20" height="20" opacity="0"/>
  <g transform="translate(-.0861 -.027943)" fill="none" stroke="#fff" stroke-linejoin="round" stroke-width="1.0769">
   <rect x="-9.2523" y="-10.537" width="6.8548" height="6.6935" rx=".28546" ry=".28546"/>
   <path d="m-7.3787-10.544v-1.9531h6.4438v6.4438h-1.3543"/>
  </g>
 </g>
 <g id="inactive-center" transform="matrix(1.3 0 0 1.3 97.734 17.657)">
  <rect x="-15.18" y="-18.198" width="20" height="20" opacity="0"/>
  <g transform="translate(-.0861 -.027943)" fill="none" stroke="#bdc3c7" stroke-linejoin="round" stroke-width="1.0769">
   <rect x="-9.2523" y="-10.537" width="6.8548" height="6.6935" rx=".28546" ry=".28546"/>
   <path d="m-7.3787-10.544v-1.9531h6.4438v6.4438h-1.3543"/>
  </g>
 </g>
 <g id="hover-inactive-center" transform="matrix(1.3 0 0 1.3 123.73 17.657)">
  <rect x="-15.18" y="-18.198" width="20" height="20" opacity="0"/>
  <path class="ColorScheme-ViewHover" transform="matrix(1.1538 0 0 1.1538 -50.205 -15.216)" d="m45 6a6 6 0 1 1-12 0 6 6 0 1 1 12 0z" fill="currentColor"/>
  <g transform="translate(-.11149 -.12255)" fill="none" stroke="#fff" stroke-linejoin="round" stroke-width="1.0769">
   <rect x="-9.2523" y="-10.537" width="6.8548" height="6.6935" rx=".28546" ry=".28546"/>
   <path d="m-7.3787-10.544v-1.9531h6.4438v6.4438h-1.3543"/>
  </g>
 </g>
 <g id="pressed-inactive-center" transform="matrix(1.3 0 0 1.3 149.73 17.657)">
  <rect x="-15.18" y="-18.198" width="20" height="20" opacity="0"/>
  <path class="ColorScheme-ViewHover" transform="matrix(1.1538 0 0 1.1538 -50.205 -15.216)" d="m45 6a6 6 0 1 1-12 0 6 6 0 1 1 12 0z" fill="currentColor" fill-opacity=".75"/>
  <g transform="translate(-.11148 -.12256)" fill="none" stroke="#606060" stroke-linejoin="round" stroke-width="1.0769">
   <rect x="-9.2523" y="-10.537" width="6.8548" height="6.6935" rx=".28546" ry=".28546"/>
   <path d="m-7.3787-10.544v-1.9531h6.4438v6.4438h-1.3543"/>
  </g>
 </g>
</svg>
