<?xml version="1.0" encoding="UTF-8"?>
<svg width="100" height="20" version="1.0" xmlns="http://www.w3.org/2000/svg">
 <g id="active-center" stroke="#fff">
  <rect x="-.00040004" y="-6.0006" width="26" height="26" opacity="0" stroke-width="1.3"/>
  <g fill="none" stroke-linecap="round" stroke-width="2">
   <path d="m7.7596 1.8049 10.48 10.434"/>
   <path d="M 18.235,1.76 7.76,12.237"/>
  </g>
 </g>
 <g id="pressed-center">
  <rect x="52" y="-6.0006" width="26" height="26" opacity="0" stroke-width="1.3"/>
  <path d="m74 6.9994a9.0002 9.0002 0 1 1-18 0 9.0002 9.0002 0 1 1 18 0z" fill="#db4439" fill-opacity=".74902" stroke-width=".96849"/>
  <g fill="none" stroke="#606060" stroke-linecap="round" stroke-width="2">
   <path d="m60.366 2.4062 9.2692 9.2277"/>
   <path d="m69.631 2.3664-9.2645 9.2659"/>
  </g>
 </g>
 <g id="inactive-center">
  <rect x="78" y="-6.0006" width="26" height="26" opacity="0" stroke-width=".85294"/>
  <g fill="none" stroke="#a1a9b1" stroke-linecap="round" stroke-width="2">
   <path d="m85.828 1.8726 10.345 10.298"/>
   <path d="m96.166 1.8283-10.339 10.34"/>
  </g>
 </g>
 <g id="pressed-inactive-center">
  <rect x="130" y="-6.0006" width="26" height="26" opacity="0" stroke-width="1.3"/>
  <path d="m152 6.9994a9.0002 9.0002 0 1 1-18 0 9.0002 9.0002 0 1 1 18 0z" fill="#db4439" fill-opacity=".74902" stroke-width=".96849"/>
  <g transform="translate(78)" fill="none" stroke="#606060" stroke-linecap="round" stroke-width="2">
   <path d="m60.366 2.4062 9.2692 9.2277"/>
   <path d="m69.631 2.3664-9.2645 9.2659"/>
  </g>
 </g>
 <g id="hover-center">
  <rect x="26" y="-6.0006" width="26" height="26" opacity="0" stroke-width="1.3"/>
  <path d="m48 6.9994a9.0002 9.0002 0 1 1-18 0 9.0002 9.0002 0 1 1 18 0z" fill="#db4439" stroke-width=".96849"/>
  <g fill="none" stroke="#fff" stroke-linecap="round" stroke-width="2">
   <path d="m34.366 2.4062 9.2692 9.2277"/>
   <path d="m43.631 2.3664-9.2645 9.2659"/>
  </g>
 </g>
 <g id="hover-inactive-center">
  <rect x="104" y="-6.0006" width="26" height="26" opacity="0" stroke-width="1.3"/>
  <path d="m126 6.9994a9.0002 9.0002 0 1 1-18 0 9.0002 9.0002 0 1 1 18 0z" fill="#db4439" stroke-width=".96849"/>
  <g fill="none" stroke="#eff0f1" stroke-linecap="round" stroke-width="2">
   <path d="m112.42 2.455 9.1709 9.1297"/>
   <path d="m121.58 2.4156-9.1662 9.1675"/>
  </g>
 </g>
</svg>
