<?xml version="1.0" encoding="UTF-8"?>
<svg width="100" height="20" version="1.0" xmlns="http://www.w3.org/2000/svg" xmlns:cc="http://creativecommons.org/ns#" xmlns:dc="http://purl.org/dc/elements/1.1/" xmlns:rdf="http://www.w3.org/1999/02/22-rdf-syntax-ns#">
 <metadata>
  <rdf:RDF>
   <cc:Work rdf:about="">
    <dc:format>image/svg+xml</dc:format>
    <dc:type rdf:resource="http://purl.org/dc/dcmitype/StillImage"/>
    <dc:title/>
   </cc:Work>
  </rdf:RDF>
 </metadata>
 <defs>
  <style id="current-color-scheme" type="text/css">.ColorScheme-Text {
        color:#000000;
      }
      .ColorScheme-Background{
        color:#7f7f7f;
      }
      .ColorScheme-ViewText {
        color:#000000;
      }
      .ColorScheme-ViewBackground{
        color:#ffffff;
      }
      .ColorScheme-ViewHover {
        color:#3daee9;
      }
      .ColorScheme-ViewFocus{
        color:#3a90be;
      }
      .ColorScheme-ButtonText {
        color:#000000;
      }
      .ColorScheme-ButtonBackground{
        color:#E9E8E8;
      }
      .ColorScheme-ButtonHover {
        color:#1489ff;
      }
      .ColorScheme-ButtonFocus{
        color:#2B74C7;
      }</style>
 </defs>
 <g id="hover-center">
  <rect x="26" y="-6.0004" width="26" height="26" opacity="0" stroke-width="1.3"/>
  <path class="ColorScheme-ViewHover" d="m48 6.9996a8.9999 8.9999 0 1 1-18 0 8.9999 8.9999 0 1 1 18 0z" fill="currentColor" stroke-width="1.4999"/>
  <path d="m40.073 0.25822 4.4241 3.1251-4.8101 6.4667-4.2252-2.5506z" fill="#232629" stroke-width="7.7168"/>
  <path d="m33.716 5.7919 7.6575 5.5005" fill="#ff2a2a" stroke="#232629" stroke-width="1.1px"/>
  <path d="m37.466 8.6352-3.5125 4.8937" fill="none" stroke="#232629" stroke-width="1px"/>
 </g>
 <g id="pressed-center">
  <rect x="52" y="-6.0004" width="26" height="26" opacity="0" stroke-width="1.3"/>
  <path class="ColorScheme-ViewHover" d="m74 6.9996a8.9999 8.9999 0 1 1-18 0 8.9999 8.9999 0 1 1 18 0z" fill="currentColor" fill-opacity=".75" stroke-width="1.4999"/>
  <circle cx="65" cy="6.9996" r="1.4999" fill="#232629" stroke-width="1.7066"/>
 </g>
 <g id="active-center">
  <rect x="-3.9673e-7" y="-6.0004" width="26" height="26" opacity="0" stroke-width="1.3"/>
  <path d="m14.073 0.25822 4.4241 3.1251-4.8101 6.4667-4.2252-2.5506z" fill="#232629" stroke-width="7.7168"/>
  <path d="m7.716 5.7919 7.6575 5.5005" fill="#ff2a2a" stroke="#232629" stroke-width="1.1px"/>
  <path d="m11.466 8.6352-3.5125 4.8937" fill="none" stroke="#232629" stroke-width="1px"/>
 </g>
 <g id="inactive-center">
  <rect x="81.226" y="-6.0004" width="26" height="26" opacity="0" stroke-width="1.3"/>
  <path d="m95.299 0.25822 4.4241 3.1251-4.8101 6.4667-4.2252-2.5506z" fill="#bdc3c7" stroke-width="7.7168"/>
  <path d="m88.942 5.7919 7.6575 5.5005" fill="none" stroke="#bdc3c7" stroke-width="1.1px"/>
  <path d="m92.692 8.6352-3.5125 4.8937" fill="none" stroke="#bdc3c7" stroke-width="1px"/>
 </g>
 <g id="hover-inactive-center">
  <rect x="104" y="-6.0004" width="26" height="26" opacity="0" stroke-width="1.3"/>
  <path class="ColorScheme-ViewHover" d="m126 6.9996a8.9999 8.9999 0 1 1-18 0 8.9999 8.9999 0 1 1 18 0z" fill="currentColor" stroke-width="1.4999"/>
  <path d="m118.07 0.25822 4.4241 3.1251-4.8101 6.4667-4.2252-2.5506z" fill="#232629" stroke-width="7.7168"/>
  <path d="m111.71 5.7919 7.6574 5.5005" fill="#ff2a2a" stroke="#232629" stroke-width="1.1px"/>
  <path d="m115.46 8.6352-3.5125 4.8937" fill="none" stroke="#232629" stroke-width="1px"/>
 </g>
 <g id="pressed-inactive-center">
  <rect x="130" y="-6.0004" width="26" height="26" opacity="0" stroke-width="1.3"/>
  <path class="ColorScheme-ViewHover" d="m152 6.9996a8.9999 8.9999 0 1 1-18 0 8.9999 8.9999 0 1 1 18 0z" fill="currentColor" fill-opacity=".75" stroke-width="1.4999"/>
  <circle cx="143" cy="6.9996" r="1.4999" fill="#232629" stroke-width="1.7066"/>
 </g>
</svg>
